<svg width="85" height="84" viewBox="0 0 85 84" fill="none" xmlns="http://www.w3.org/2000/svg">
<path d="M34.1718 17.1243L32.7839 25.2461C32.7452 25.4735 32.7707 25.7072 32.8572 25.9208C32.9438 26.1344 33.0883 26.3193 33.2741 26.4549C33.4601 26.5904 33.68 26.6711 33.9091 26.6877C34.1382 26.7044 34.3675 26.6563 34.5708 26.5491L41.8362 22.7145L49.1008 26.5491C49.3041 26.6563 49.5333 26.7044 49.7624 26.6877C49.9917 26.6711 50.2116 26.5904 50.3974 26.4549C50.5833 26.3193 50.7277 26.1344 50.8143 25.9208C50.901 25.7072 50.9264 25.4735 50.8877 25.2461L49.5005 17.1243L55.3787 11.3729C55.5431 11.2117 55.6594 11.0076 55.7145 10.7836C55.7695 10.5596 55.7612 10.3245 55.6901 10.1051C55.6191 9.88564 55.4884 9.69048 55.3127 9.54169C55.1369 9.39291 54.9234 9.29641 54.6959 9.26311L46.5727 8.07891L42.9404 0.689732C42.8389 0.482728 42.6815 0.308407 42.4864 0.186507C42.2913 0.0646076 42.0659 0 41.8362 0C41.6063 0 41.381 0.0646076 41.1859 0.186507C40.9907 0.308407 40.8334 0.482728 40.7318 0.689732L37.0989 8.07891L28.9763 9.26311C28.749 9.29627 28.5353 9.39265 28.3596 9.54136C28.1838 9.69007 28.053 9.88517 27.982 10.1046C27.911 10.324 27.9025 10.5591 27.9577 10.7831C28.0127 11.0071 28.1291 11.2111 28.2937 11.3722L34.1718 17.1243ZM38.094 10.4325C38.2915 10.4035 38.4791 10.3268 38.6404 10.209C38.8019 10.0912 38.9325 9.93588 39.0209 9.75628L41.8362 4.03316L44.6514 9.75628C44.7399 9.93588 44.8704 10.0912 45.0318 10.209C45.1933 10.3268 45.3808 10.4035 45.5783 10.4325L51.8729 11.351L47.318 15.8072C47.1754 15.9473 47.0689 16.1203 47.0075 16.3108C46.9463 16.5015 46.9321 16.7043 46.9662 16.9017L48.0408 23.1943L42.4105 20.2268C42.2337 20.1335 42.037 20.0848 41.8372 20.0848C41.6375 20.0848 41.4408 20.1335 41.264 20.2268L35.6336 23.1943L36.7089 16.9017C36.7429 16.7043 36.7286 16.5016 36.6674 16.3109C36.606 16.1203 36.4996 15.9475 36.3571 15.8072L31.8029 11.351L38.094 10.4325Z" fill="#BB976D"/>
<path d="M83.6114 12.9607C83.5404 12.7414 83.4097 12.5464 83.2341 12.3977C83.0586 12.249 82.845 12.1526 82.6177 12.1192L76.1666 11.1781L73.2812 5.31367C73.1793 5.10691 73.0219 4.93287 72.8267 4.81117C72.6314 4.68948 72.4063 4.625 72.1766 4.625C71.9468 4.625 71.7215 4.68948 71.5264 4.81117C71.3312 4.93287 71.1738 5.10691 71.072 5.31367L68.1863 11.1816L61.7354 12.1228C61.508 12.156 61.2944 12.2525 61.1187 12.4013C60.9431 12.55 60.8125 12.7451 60.7415 12.9645C60.6705 13.1839 60.6621 13.4189 60.7172 13.6429C60.7723 13.8668 60.8888 14.0708 61.0534 14.2319L65.7209 18.7997L64.6195 25.2499C64.5807 25.4772 64.6062 25.7109 64.6928 25.9245C64.7794 26.1381 64.9239 26.3232 65.1097 26.4587C65.2957 26.5943 65.5156 26.6748 65.7447 26.6915C65.9738 26.7081 66.2031 26.6601 66.4064 26.5528L72.1776 23.5075L77.9487 26.5528C78.1521 26.6601 78.3813 26.7081 78.6104 26.6915C78.8396 26.6748 79.0596 26.5943 79.2454 26.4587C79.4313 26.3232 79.5757 26.1381 79.6623 25.9245C79.749 25.7109 79.7744 25.4772 79.7357 25.2499L78.6335 18.7997L83.3019 14.2319C83.4668 14.0703 83.5833 13.8655 83.638 13.6408C83.6927 13.4161 83.6836 13.1805 83.6114 12.9607ZM76.4497 17.4827C76.307 17.6228 76.2004 17.7957 76.1392 17.9864C76.0778 18.1769 76.0636 18.3797 76.0977 18.5772L76.8868 23.198L72.7512 21.0155C72.5743 20.9223 72.3776 20.8735 72.1779 20.8735C71.9783 20.8735 71.7814 20.9223 71.6047 21.0155L67.4706 23.1973L68.2602 18.5764C68.2943 18.3791 68.2801 18.1763 68.2189 17.9856C68.1575 17.7949 68.051 17.6221 67.9084 17.482L64.5632 14.2092L69.1851 13.5352C69.3826 13.5063 69.5702 13.4296 69.7319 13.3119C69.8934 13.1941 70.0241 13.0387 70.1127 12.859L72.1797 8.65427L74.2467 12.859C74.3352 13.0386 74.4657 13.1939 74.6272 13.3117C74.7887 13.4295 74.9761 13.5061 75.1736 13.5352L79.7961 14.2092L76.4497 17.4827Z" fill="#BB976D"/>
<path d="M17.8366 26.6902C18.016 26.6904 18.1932 26.6512 18.3559 26.5753C18.5186 26.4994 18.6627 26.3889 18.7784 26.2513C18.894 26.1136 18.9782 25.9522 19.0254 25.7785C19.0724 25.6048 19.081 25.4228 19.0506 25.2453L17.9492 18.7952L22.6174 14.2273C22.7821 14.0662 22.8985 13.8621 22.9536 13.6381C23.0087 13.4141 23.0002 13.1791 22.9291 12.9597C22.8581 12.7403 22.7274 12.5452 22.5517 12.3964C22.3759 12.2477 22.1623 12.1513 21.9348 12.1182L15.4838 11.177L12.5982 5.31262C12.4965 5.10585 12.3391 4.93175 12.144 4.81002C11.9489 4.68829 11.7237 4.62378 11.494 4.62378C11.2642 4.62378 11.0391 4.68829 10.8439 4.81002C10.6488 4.93175 10.4915 5.10585 10.3897 5.31262L7.50415 11.1806L1.05525 12.1182C0.827751 12.1512 0.614004 12.2475 0.438192 12.3962C0.262379 12.5449 0.131517 12.74 0.0604098 12.9594C-0.0106976 13.1789 -0.0192121 13.414 0.0358292 13.638C0.0908707 13.8621 0.207271 14.0662 0.371863 14.2273L5.04015 18.7952L3.93801 25.2453C3.8993 25.4726 3.9247 25.7064 4.01134 25.92C4.09797 26.1336 4.24239 26.3186 4.42827 26.4541C4.61416 26.5897 4.8341 26.6702 5.06324 26.6869C5.29238 26.7036 5.52157 26.6556 5.72495 26.5482L11.4961 23.5029L17.2672 26.5482C17.4428 26.641 17.6382 26.6898 17.8366 26.6902ZM12.0655 21.0145C11.8887 20.9212 11.6919 20.8725 11.4922 20.8725C11.2925 20.8725 11.0958 20.9212 10.919 21.0145L6.78697 23.1934L7.57663 18.5726C7.61057 18.3752 7.59626 18.1725 7.53497 17.9818C7.47368 17.7912 7.36723 17.6184 7.22473 17.4781L3.88029 14.2054L8.50142 13.5313C8.69906 13.5025 8.88678 13.426 9.04837 13.3082C9.20996 13.1904 9.34061 13.0349 9.42904 12.8551L11.4947 8.6497L13.5617 12.8544C13.6502 13.0342 13.7808 13.1897 13.9424 13.3075C14.104 13.4253 14.2917 13.5018 14.4893 13.5306L19.1105 14.2046L15.766 17.4817C15.6234 17.6218 15.5168 17.7946 15.4554 17.9853C15.3942 18.176 15.38 18.3788 15.4141 18.5761L16.2031 23.197L12.0655 21.0145Z" fill="#BB976D"/>
<path d="M67.6017 56.3861C67.6001 55.0593 67.0744 53.7872 66.14 52.849C65.2054 51.9108 63.9383 51.383 62.6166 51.3816H47.4272V35.1096C47.4272 33.6212 46.8383 32.1936 45.7899 31.1412C44.7415 30.0886 43.3196 29.4973 41.837 29.4973C40.3544 29.4973 38.9325 30.0886 37.8841 31.1412C36.8357 32.1936 36.2468 33.6212 36.2468 35.1096V38.2113C36.2505 39.9908 35.6854 41.7244 34.6343 43.1573L28.6247 51.3816H17.304C16.9774 51.3816 16.6641 51.5118 16.4332 51.7437C16.2022 51.9756 16.0724 52.2901 16.0724 52.6181V82.7633C16.0724 83.0913 16.2022 83.4057 16.4332 83.6377C16.6641 83.8696 16.9774 83.9998 17.304 83.9998H60.5053C61.4824 84.0002 62.4381 83.7124 63.2536 83.1717C64.0689 82.6312 64.708 81.8618 65.0913 80.9594C65.4744 80.0572 65.5851 79.0616 65.4091 78.0966C65.2331 77.1317 64.7785 76.24 64.1017 75.5324C64.6846 75.116 65.1714 74.5782 65.5286 73.956C65.8859 73.3336 66.1054 72.6413 66.1722 71.9261C66.239 71.2109 66.1515 70.4897 65.9157 69.8116C65.6798 69.1334 65.3011 68.5142 64.8055 67.9962C65.3884 67.5798 65.8751 67.0421 66.2324 66.4198C66.5898 65.7974 66.8093 65.1052 66.8762 64.39C66.9428 63.6748 66.8553 62.9536 66.6194 62.2754C66.3837 61.5973 66.0049 60.9781 65.5092 60.4601C66.1563 59.9977 66.6837 59.3866 67.0477 58.678C67.4118 57.9693 67.6016 57.1834 67.6017 56.3861ZM18.5357 53.8545H28.0172V81.5269H18.5357V53.8545ZM62.6166 58.9177H61.9128C61.5862 58.9177 61.2729 59.048 61.042 59.2798C60.811 59.5117 60.6812 59.8262 60.6812 60.1542C60.6812 60.4821 60.811 60.7966 61.042 61.0285C61.2729 61.2604 61.5862 61.3906 61.9128 61.3906C62.5745 61.4017 63.2052 61.6734 63.6691 62.147C64.1332 62.6206 64.3931 63.2584 64.3931 63.9226C64.3931 64.5869 64.1332 65.2246 63.6691 65.6982C63.2052 66.1718 62.5745 66.4434 61.9128 66.4545H61.209C60.8825 66.4545 60.5691 66.5849 60.3382 66.8168C60.1071 67.0486 59.9773 67.3632 59.9773 67.691C59.9773 68.019 60.1071 68.3334 60.3382 68.5653C60.5691 68.7973 60.8825 68.9276 61.209 68.9276C61.8779 68.9276 62.5192 69.1942 62.9922 69.669C63.4651 70.1437 63.7308 70.7877 63.7308 71.4592C63.7308 72.1305 63.4651 72.7745 62.9922 73.2492C62.5192 73.724 61.8779 73.9908 61.209 73.9908H60.5053C60.1785 73.9908 59.8654 74.121 59.6343 74.3529C59.4033 74.5848 59.2736 74.8993 59.2736 75.2272C59.2736 75.5552 59.4033 75.8696 59.6343 76.1014C59.8654 76.3334 60.1785 76.4637 60.5053 76.4637C61.1741 76.4637 61.8155 76.7304 62.2884 77.2052C62.7612 77.68 63.027 78.3238 63.027 78.9953C63.027 79.6666 62.7612 80.3106 62.2884 80.7853C61.8155 81.2601 61.1741 81.5269 60.5053 81.5269H30.4805V53.0222L36.6205 44.6177C37.9823 42.7616 38.7146 40.5158 38.7101 38.2106V35.1089C38.7101 34.2762 39.0395 33.4778 39.626 32.889C40.2123 32.3004 41.0077 31.9696 41.837 31.9696C42.6663 31.9696 43.4617 32.3004 44.0481 32.889C44.6346 33.4778 44.964 34.2762 44.964 35.1089V52.6173C44.964 52.9453 45.0937 53.2598 45.3248 53.4917C45.5558 53.7236 45.8689 53.8538 46.1957 53.8538H62.6166C63.2854 53.8538 63.9268 54.1205 64.3997 54.5953C64.8727 55.0701 65.1383 55.714 65.1383 56.3854C65.1383 57.0568 64.8727 57.7008 64.3997 58.1756C63.9268 58.6502 63.2854 58.9177 62.6166 58.9177Z" fill="#BB976D"/>
</svg>
